# Blender v2.92.0 OBJ File: 'display.blend'
# www.blender.org
mtllib display.mtl
o Cube_Cube.001
v -0.253996 -2.893710 2.629915
v -0.253996 2.893710 2.629915
v -0.253996 -2.893710 -2.629915
v -0.253996 2.893710 -2.629915
v 0.253996 -3.027482 2.763687
v 0.253996 3.027482 2.763687
v 0.253996 -3.027482 -2.763687
v 0.253996 3.027482 -2.763687
v -0.253996 -3.027482 -2.763687
v -0.253996 -3.027482 2.763687
v -0.253996 3.027482 2.763687
v -0.253996 3.027482 -2.763687
v -0.116783 -2.893710 -2.629915
v -0.116783 -2.893710 2.629915
v -0.116783 2.893710 2.629915
v -0.116783 2.893710 -2.629915
v -0.215076 -3.061741 -2.664628
v 0.189834 -5.000561 -2.664628
v -0.215076 -5.000561 2.660442
v 0.189834 -3.061741 -2.664628
v -0.215076 -3.061741 2.660442
v -0.215076 -5.000561 -2.664628
v 0.189834 -5.000561 2.660442
v 0.189834 -3.061741 2.660442
v 0.189834 -5.000561 -2.664628
v -0.215076 -5.000561 -2.664628
v -0.215076 -5.000561 2.660442
v 0.189834 -5.000561 2.660442
v 0.842925 -5.257276 -3.612112
v -0.829239 -5.257276 -3.612112
v -0.829239 -5.257276 3.607926
v 0.842925 -5.257276 3.607926
vt 0.150768 0.953897
vt 0.150768 0.953897
vt 0.150768 0.953897
vt 0.046595 0.951417
vt 0.046595 0.951417
vt 0.046595 0.951417
vt 0.046595 0.951417
vt 0.046595 0.951417
vt 0.046595 0.951417
vt 0.046595 0.951417
vt 0.046595 0.951417
vt 0.046595 0.951417
vt 0.046595 0.951417
vt 0.046595 0.951417
vt 0.046595 0.951417
vt 0.150768 0.953897
vt 0.150768 0.953897
vt 0.150768 0.953897
vt 0.150768 0.953897
vt 0.150768 0.953897
vt 0.046595 0.951417
vt 0.046595 0.951417
vt 0.046595 0.951417
vt 0.046595 0.951417
vt 0.046595 0.951417
vt 0.046595 0.951417
vt 0.046595 0.951417
vt 0.046595 0.951417
vt 0.046595 0.951417
vt 0.046595 0.951417
vt 0.046595 0.951417
vt 0.046595 0.951417
vt 0.046595 0.951417
vt 0.046595 0.951417
vt 0.046595 0.951417
vt 0.046595 0.951417
vt 0.999900 0.999201
vt 0.000100 0.000100
vt 0.999900 0.000100
vt 0.000100 0.999201
vn 0.0000 0.0000 1.0000
vn 0.0000 0.0000 -1.0000
vn 1.0000 0.0000 0.0000
vn 0.0000 -1.0000 0.0000
vn 0.0000 1.0000 0.0000
vn -1.0000 -0.0000 0.0000
vn -0.3857 0.9226 0.0000
vn 0.0000 0.9652 0.2615
vn 0.0000 0.9652 -0.2615
vn 0.3658 0.9307 0.0000
usemtl Material.001
s off
f 3/1/1 16/2/1 4/3/1
f 12/4/2 7/5/2 9/6/2
f 8/7/3 5/8/3 7/5/3
f 6/9/1 10/10/1 5/8/1
f 7/5/4 10/10/4 9/6/4
f 12/4/5 6/9/5 8/7/5
f 3/11/6 10/10/6 1/12/6
f 1/12/6 11/13/6 2/14/6
f 2/14/6 12/4/6 4/15/6
f 4/15/6 9/6/6 3/11/6
f 2/16/2 14/17/2 1/18/2
f 4/3/4 15/19/4 2/16/4
f 1/18/5 13/20/5 3/1/5
f 22/21/1 25/22/1 26/23/1
f 17/24/5 24/25/5 20/26/5
f 17/24/2 18/27/2 22/21/2
f 20/26/3 23/28/3 18/27/3
f 21/29/6 22/21/6 19/30/6
f 24/25/1 19/30/1 23/28/1
f 26/23/7 31/31/7 27/32/7
f 23/28/1 27/32/1 28/33/1
f 19/30/1 26/23/1 27/32/1
f 18/27/1 28/33/1 25/22/1
f 29/34/4 31/31/4 30/35/4
f 28/33/8 31/31/8 32/36/8
f 25/22/9 30/35/9 26/23/9
f 28/33/10 29/34/10 25/22/10
f 3/1/1 13/20/1 16/2/1
f 12/4/2 8/7/2 7/5/2
f 8/7/3 6/9/3 5/8/3
f 6/9/1 11/13/1 10/10/1
f 7/5/4 5/8/4 10/10/4
f 12/4/5 11/13/5 6/9/5
f 3/11/6 9/6/6 10/10/6
f 1/12/6 10/10/6 11/13/6
f 2/14/6 11/13/6 12/4/6
f 4/15/6 12/4/6 9/6/6
f 2/16/2 15/19/2 14/17/2
f 4/3/4 16/2/4 15/19/4
f 1/18/5 14/17/5 13/20/5
f 22/21/1 18/27/1 25/22/1
f 17/24/5 21/29/5 24/25/5
f 17/24/2 20/26/2 18/27/2
f 20/26/3 24/25/3 23/28/3
f 21/29/6 17/24/6 22/21/6
f 24/25/1 21/29/1 19/30/1
f 26/23/7 30/35/7 31/31/7
f 23/28/1 19/30/1 27/32/1
f 19/30/1 22/21/1 26/23/1
f 18/27/1 23/28/1 28/33/1
f 29/34/4 32/36/4 31/31/4
f 28/33/8 27/32/8 31/31/8
f 25/22/9 29/34/9 30/35/9
f 28/33/10 32/36/10 29/34/10
usemtl Material.002
f 15/37/6 13/38/6 14/39/6
f 15/37/6 16/40/6 13/38/6
